<?xml version="1.0" encoding="utf-8"?>
<!-- Generator: Adobe Illustrator 24.1.1, SVG Export Plug-In . SVG Version: 6.00 Build 0)  -->
<svg version="1.1" id="Capa_1" xmlns="http://www.w3.org/2000/svg" xmlns:xlink="http://www.w3.org/1999/xlink" x="0px" y="0px"
	 viewBox="0 0 301 96.2" style="enable-background:new 0 0 301 96.2;" xml:space="preserve">
<style type="text/css">
	.st0{fill:#006699;}
	.st1{fill:#FFFFFF;}
</style>
<rect x="739.1" y="1636.2" style="fill:none;" width="0" height="2.3"/>
<path class="st0" d="M-481.7,123.2c0-13.6,11.3-24.6,25.3-24.6h291.4c14,0,25.3,11,25.3,24.6v294.8c0,13.6-11.3,24.6-25.3,24.6
	h-291.4c-14,0-25.3-11-25.3-24.6L-481.7,123.2L-481.7,123.2z"/>
<g>
	<path d="M-1220.7,310.5c-1-26.4-1.4-57.3-1.4-93.3h-1c-7.2,30.5-16.8,65.2-24.4,90.6l-23,80.6h-48.4l-19.2-80.3
		c-6.2-25-13-59.3-18.5-90.9h-0.7c-1.4,32.6-2.4,66.9-3.4,93.3l-3.8,82.7h-56.9L-1407,162h83.4l15.1,62.1
		c6.5,25.7,13.4,56.6,18.2,84.7h1c6.5-28.1,14.1-60.7,20.9-85.1l17.5-61.7h81.3l11.7,231.2h-60L-1220.7,310.5z"/>
	<path d="M-955.5,335.5c0,24,0.7,43.2,1.4,57.6h-53.5l-2.7-22.3h-1c-6.2,9.3-20.9,26.1-51.1,26.1c-37.7,0-60-24.4-60-73.1v-99.5
		h62.1v89.5c0,21.6,6.9,33.3,21.6,33.3c11.3,0,17.5-7.9,19.9-14.4c1-2.4,1.4-5.5,1.4-8.9v-99.5h62.1V335.5z"/>
	<path d="M-915.4,341.4c9.6,5.8,31.6,12.7,46.7,12.7c13.4,0,18.5-2.7,18.5-9.3c0-6.2-3.8-8.9-22-14.4c-37.4-12-50.1-32.2-49.7-51.8
		c0-33.6,28.8-58,73.4-58c20.6,0,39.1,4.8,50.1,9.6l-9.9,41.8c-7.9-3.8-23.7-9.3-37.4-9.3c-10.6,0-16.8,2.7-16.8,9.6
		c0,5.5,5.5,8.9,25.4,15.4c33.3,11,46,28.1,46.3,52.5c0,32.2-25,56.6-77.2,56.6c-23.7,0-44.6-5.1-58-12L-915.4,341.4z"/>
	<path d="M-699.7,178.1c0,16.1-12.3,29.2-31.9,29.2c-19.2,0-31.2-13-31.2-29.2c0-17.2,12.3-29.5,31.6-29.5S-700,160.9-699.7,178.1z
		 M-762.4,393.2V224.4h62.1v168.8H-762.4z"/>
	<path d="M-532.6,389.4c-9.9,4.8-27.4,7.2-46.3,7.2c-56.3,0-91.6-32.9-91.6-86.4c0-48.4,33.3-89.5,99.1-89.5c12,0,26.8,1.7,38.8,5.8
		l-8.6,45.3c-5.8-2.4-14.1-4.1-26.8-4.1c-23,0-39.4,15.8-39.1,40.1c0,27.8,18.9,40.8,40.8,40.8c10.6,0,19.2-1.4,27.1-4.5
		L-532.6,389.4z"/>
	<path class="st1" d="M-376.5,178.1c0,16.1-12.3,29.2-31.9,29.2c-19.2,0-31.2-13-31.2-29.2c0-17.2,12.3-29.5,31.6-29.5
		S-376.9,160.9-376.5,178.1z M-439.7,393.7v-169h62v169H-439.7z"/>
	<path class="st1" d="M-338.7,281.4c0-22.7-0.7-41.9-1.3-57.7h53.1l2.8,22h0.8c6.2-8.9,22.6-25.4,50.7-25.4c39.4,0,61,26.7,61,73
		v99.4h-62v-91.9c0-19.6-6.6-30.9-21.8-30.9c-12.1,0-17.7,8.2-20.4,14.7c-1.4,3.1-1.7,7.9-1.7,12.3v95.7h-61V281.4z"/>
</g>
<polygon points="-699.7,178.1 -699.7,64.5 -408.1,64.5 -408.1,177.9 -376.5,177.9 -376.7,32.9 -731.6,32.9 -731.4,177.9 "/>
<polygon class="st1" points="-376.5,178.3 -408.5,178.3 -408.1,99.5 -376.6,99.5 "/>
<text transform="matrix(1 0 0 1 -1289.6462 522.4828)" style="font-family:'MyriadPro-Black'; font-size:78px;">La web para  jovenes musicos</text>
<path class="st0" d="M220.7,21.2c0-3.2,2.7-5.8,5.9-5.8H295c3.3,0,5.9,2.6,5.9,5.8v69.2c0,3.2-2.7,5.8-5.9,5.8h-68.4
	c-3.3,0-5.9-2.6-5.9-5.8L220.7,21.2L220.7,21.2z"/>
<g>
	<path class="st1" d="M47.1,65.2c-0.2-6.2-0.3-13.5-0.3-21.9h-0.2c-1.7,7.2-3.9,15.3-5.7,21.3l-5.4,18.9H24.1l-4.5-18.8
		c-1.4-5.9-3.1-13.9-4.3-21.3h-0.2c-0.3,7.7-0.6,15.7-0.8,21.9l-0.9,19.4H0l3.4-54.3H23l3.5,14.6c1.5,6,3.1,13.3,4.3,19.9H31
		c1.5-6.6,3.3-14.3,4.9-20L40,30.3h19.1l2.7,54.3H47.8L47.1,65.2z"/>
	<path class="st1" d="M109.4,71.1c0,5.6,0.2,10.1,0.3,13.5H97.1l-0.6-5.2h-0.2c-1.4,2.2-4.9,6.1-12,6.1c-8.9,0-14.1-5.7-14.1-17.2
		V45h14.6v21c0,5.1,1.6,7.8,5.1,7.8c2.7,0,4.1-1.9,4.7-3.4c0.2-0.6,0.3-1.3,0.3-2.1V45h14.6V71.1z"/>
	<path class="st1" d="M118.8,72.4c2.3,1.4,7.4,3,11,3c3.1,0,4.3-0.6,4.3-2.2c0-1.4-0.9-2.1-5.2-3.4c-8.8-2.8-11.8-7.6-11.7-12.2
		c0-7.9,6.8-13.6,17.2-13.6c4.8,0,9.2,1.1,11.8,2.3l-2.3,9.8c-1.9-0.9-5.6-2.2-8.8-2.2c-2.5,0-3.9,0.6-3.9,2.3c0,1.3,1.3,2.1,6,3.6
		c7.8,2.6,10.8,6.6,10.9,12.3c0,7.6-5.9,13.3-18.1,13.3c-5.6,0-10.5-1.2-13.6-2.8L118.8,72.4z"/>
	<path class="st1" d="M169.5,34.1c0,3.8-2.9,6.8-7.5,6.8c-4.5,0-7.3-3.1-7.3-6.8c0-4,2.9-6.9,7.4-6.9S169.4,30.1,169.5,34.1z
		 M154.7,84.6V45h14.6v39.6H154.7z"/>
	<path class="st1" d="M208.7,83.7c-2.3,1.1-6.4,1.7-10.9,1.7c-13.2,0-21.5-7.7-21.5-20.3c0-11.4,7.8-21,23.3-21
		c2.8,0,6.3,0.4,9.1,1.4l-2,10.6c-1.4-0.6-3.3-1-6.3-1c-5.4,0-9.3,3.7-9.2,9.4c0,6.5,4.4,9.6,9.6,9.6c2.5,0,4.5-0.3,6.4-1
		L208.7,83.7z"/>
	<path class="st1" d="M230.5,84.7V45h14.6v39.7H230.5z"/>
	<path class="st1" d="M254.2,58.3c0-5.3-0.2-9.8-0.3-13.6h12.5L267,50h0.2c1.4-2.1,5.3-6,11.9-6c9.3,0,14.3,6.3,14.3,17.1v23.3
		h-14.6V62.9c0-4.6-1.5-7.2-5.1-7.2c-2.8,0-4.1,1.9-4.8,3.5c-0.3,0.7-0.4,1.9-0.4,2.9v22.5h-14.3V58.3z"/>
</g>
<polygon class="st1" points="169.5,34.1 169.5,7.4 237.9,7.4 237.9,15.6 245.4,15.6 245.3,0 162,0 162,34 "/>
<path class="st1" d="M245.4,34L245.4,34L245.4,34l0-18.4l-7.4,0l-0.1,11.4c-4.5,0-7.4,2.9-7.4,6.9c0,3.8,2.8,6.8,7.3,6.8
	c4.5,0,7.4-3,7.5-6.7h0V34z"/>
</svg>
